<svg id="edit_calendar_black_24dp" xmlns="http://www.w3.org/2000/svg" width="55" height="55" viewBox="0 0 55 55">
  <rect id="사각형_312" data-name="사각형 312" width="55" height="55" fill="none"/>
  <path id="패스_19" data-name="패스 19" d="M7.6,20.391H39.782v4.6h4.6V11.2a4.611,4.611,0,0,0-4.6-4.6h-2.3V2h-4.6V6.6H14.494V2H9.9V6.6H7.6a4.577,4.577,0,0,0-4.575,4.6L3,43.38a4.6,4.6,0,0,0,4.6,4.6H23.69v-4.6H7.6Zm0-9.2H39.782v4.6H7.6ZM48.61,34.828,46.978,36.46,42.1,31.587l1.632-1.632a2.289,2.289,0,0,1,3.241,0l1.632,1.632A2.289,2.289,0,0,1,48.61,34.828Zm-8.138-1.609,4.874,4.874L33.161,50.277H28.288V45.4Z" transform="translate(3.897 2.598)" fill="#222d3c"/>
</svg>
